<svg xmlns="http://www.w3.org/2000/svg" width="34" height="34" viewBox="0 0 34 34"><g fill="none" fill-rule="evenodd" transform="translate(1 1)"><path fill="#FFF" fill-rule="nonzero" d="M17.3 7c-1.07 0-2.11.311-2.897.966-.786.654-1.303 1.66-1.303 2.934v2.4h-1.8c-.166 0-.3.134-.3.3v3.028c0 .166.134.3.3.3l1.8-.028v7.8c0 .166.134.3.3.3h3c.166 0 .3-.134.3-.3v-7.8h2.7c.166 0 .3-.134.3-.3v-3c0-.166-.134-.3-.3-.3h-2.7v-2.7h2.7c.166 0 .3-.134.3-.3v-3c0-.166-.134-.3-.3-.3h-2.1z"></path><circle cx="16" cy="16" r="16" stroke="#FFF"></circle></g></svg>