<svg xmlns="http://www.w3.org/2000/svg" width="34" height="34" viewBox="0 0 34 34"><g fill="none" fill-rule="evenodd" transform="translate(1 1)"><circle cx="16" cy="16" r="16" stroke="#FFF"></circle><g fill="#FFF" fill-rule="nonzero" transform="translate(9 9)"><path d="M7.393 1.34c1.955 0 2.196 0 2.973.053.723.027 1.098.16 1.366.24.348.135.59.296.857.563.268.268.429.51.563.858.107.267.214.642.24 1.366.028.776.054 1.018.054 2.973 0 1.955 0 2.196-.053 2.973-.027.723-.16 1.098-.241 1.366-.134.348-.295.59-.563.857-.268.268-.509.429-.857.563-.268.107-.643.214-1.366.24-.777.028-1.018.054-2.973.054-1.955 0-2.197 0-2.973-.053-.724-.027-1.099-.16-1.366-.241-.349-.134-.59-.295-.858-.563-.267-.268-.428-.509-.562-.857-.107-.268-.214-.643-.241-1.366-.027-.777-.054-1.018-.054-2.973 0-1.955 0-2.197.054-2.973.027-.724.16-1.099.24-1.366.135-.349.296-.59.563-.858.268-.267.51-.428.858-.562.267-.107.642-.214 1.366-.241.776-.054 1.018-.054 2.973-.054m0-1.339c-2.01 0-2.25 0-3.027.054-.777.026-1.312.16-1.795.348-.482.187-.884.428-1.312.857-.402.402-.67.83-.857 1.312-.188.456-.295.991-.348 1.795C.027 5.143 0 5.411 0 7.393c0 2.009 0 2.25.054 3.027.026.776.16 1.312.348 1.794.187.482.428.884.857 1.313.402.402.83.67 1.312.857.456.187.991.295 1.795.348.777.027 1.045.054 3.027.054 1.982 0 2.25 0 3.027-.054.776-.027 1.312-.16 1.794-.348.482-.188.884-.429 1.313-.857.402-.402.67-.83.857-1.313.187-.455.295-.99.348-1.794.027-.777.054-1.045.054-3.027 0-1.982 0-2.25-.054-3.027-.027-.777-.16-1.312-.348-1.795-.188-.482-.429-.884-.857-1.312-.402-.402-.83-.67-1.313-.857-.455-.188-.99-.295-1.794-.348C9.643 0 9.402 0 7.393 0z"></path><path d="M7.393 3.59c-2.09 0-3.777 1.687-3.777 3.776 0 2.09 1.688 3.777 3.777 3.777 2.09 0 3.777-1.688 3.777-3.777 0-2.09-1.688-3.777-3.777-3.777zm0 6.24c-1.366 0-2.464-1.098-2.464-2.464 0-1.366 1.098-2.464 2.464-2.464 1.366 0 2.464 1.098 2.464 2.464 0 1.366-1.098 2.464-2.464 2.464z"></path><circle cx="11.33" cy="3.429" r="1"></circle></g></g></svg>