<svg xmlns="http://www.w3.org/2000/svg" width="34" height="34" viewBox="0 0 34 34"><g fill="none" fill-rule="evenodd" transform="translate(1 1)"><path fill="#FFF" fill-rule="nonzero" d="M23 15.97V21h-3.001v-4.693c0-1.178-.434-1.983-1.52-1.983-.83 0-1.322.542-1.54 1.066-.078.188-.099.448-.099.711V21h-3.002s.04-7.949 0-8.771h3.002v1.242l-.02.03h.02v-.03c.399-.596 1.11-1.448 2.705-1.448 1.975 0 3.455 1.253 3.455 3.947zM10.698 8C9.671 8 9 8.655 9 9.515c0 .843.652 1.516 1.659 1.516h.02c1.046 0 1.697-.673 1.697-1.516-.02-.86-.65-1.515-1.678-1.515zm-1.52 13h3v-8.771h-3V21z"></path><circle cx="16" cy="16" r="16" stroke="#FFF"></circle></g></svg>