<svg xmlns="http://www.w3.org/2000/svg" xmlns:xlink="http://www.w3.org/1999/xlink" width="56" height="56" viewBox="0 0 56 56"><defs><filter id="prefix__a" width="183.3%" height="183.3%" x="-41.7%" y="-37.5%" filterUnits="objectBoundingBox"><feOffset dy="2" in="SourceAlpha" result="shadowOffsetOuter1"></feOffset><feGaussianBlur in="shadowOffsetOuter1" result="shadowBlurOuter1" stdDeviation="2"></feGaussianBlur><feColorMatrix in="shadowBlurOuter1" result="shadowMatrixOuter1" values="0 0 0 0 0 0 0 0 0 0 0 0 0 0 0 0 0 0 0.0994591346 0"></feColorMatrix><feMerge><feMergeNode in="shadowMatrixOuter1"></feMergeNode><feMergeNode in="SourceGraphic"></feMergeNode></feMerge></filter><filter id="prefix__b" width="154.2%" height="154.2%" x="-27.1%" y="-22.9%" filterUnits="objectBoundingBox"><feOffset dy="2" in="SourceAlpha" result="shadowOffsetOuter1"></feOffset><feGaussianBlur in="shadowOffsetOuter1" result="shadowBlurOuter1" stdDeviation="4"></feGaussianBlur><feColorMatrix in="shadowBlurOuter1" values="0 0 0 0 0 0 0 0 0 0 0 0 0 0 0 0 0 0 0.0670618444 0"></feColorMatrix></filter><path id="prefix__c" d="M24 0C10.766 0 0 10.766 0 24c0 4.96 1.506 9.71 4.359 13.762L2.59 46.874c-.064.332.052.672.308.894.174.152.395.231.62.231.103 0 .207-.016.307-.051l8.58-2.956C15.958 46.961 19.956 48 24 48 37.234 48 48 37.233 48 24S37.234 0 24 0z"></path></defs><g fill="none" fill-rule="evenodd"><g filter="url(#prefix__a)" transform="translate(4 4)"><g transform="matrix(-1 0 0 1 48 0)"><use fill="#000" filter="url(#prefix__b)" xlink:href="#prefix__c"></use><use fill="#FDC700" xlink:href="#prefix__c"></use></g></g><g stroke="#FFF"><path d="M13.466 11.221v1.562H8.713v-1.562c0-.346.068-.672.204-.969.367-.86 1.2-1.463 2.178-1.463.658 0 1.248.277 1.684.712.416.445.687 1.048.687 1.72zM8.015 23.969v-2.13c0-2.186 1.667-4.993 5.451-5.06H7.921" transform="translate(19 14)"></path><path d="M6.097 14.908c0 .131.016.263.04.395l.049.197c.016.066.04.132.064.197.024.066.048.132.089.198.032.066.064.131.104.188.049.084.113.169.185.254.04.047.08.103.13.14.28.31.667.546 1.134.659-.016.018-.04.037-.064.056-.314.244-.684.385-1.095.385-1.087 0-1.98-1.043-1.98-2.312v-4.164c0-1.269.893-2.312 1.98-2.312.547 0 1.038.263 1.393.676.177.198.314.442.418.705.113.282.17.593.17.922v1.485H7.07c-.048 0-.096.01-.129.01-.048.008-.096.008-.137.018-.008 0-.008 0-.016.01-.048.009-.096.027-.136.046-.009 0-.017 0-.017.01h-.008-.008l-.008.01c-.032.008-.056.027-.088.046-.032.019-.065.047-.089.075-.008 0-.008.01-.016.01l-.048.056c-.008.01-.008.019-.016.019l-.024.028c-.009.01-.017.019-.017.028l-.008.01s0 .01-.008.01c-.016.027-.04.055-.048.093-.032.047-.048.103-.072.17-.008.027-.017.046-.017.074 0 .01-.008.029-.008.038 0 .01 0 .01-.008.019-.016.066-.032.131-.04.207-.008.056-.016.131-.024.197s-.008.132-.016.207c-.008.047-.008.103-.008.16-.008.056-.008.112-.008.178v.602h.048zM17.427 2.164v11.418c-.033-.176-.089-.344-.177-.485-.033-.062-.065-.124-.105-.168-.089-.124-.201-.239-.338-.31l-.048-.026c-.033-.017-.065-.044-.105-.053-.153-.07-.322-.114-.5-.114h-2.688V2.164C13.466.97 14.352 0 15.438 0c.54 0 1.039.247 1.393.636.37.388.596.927.596 1.528z" transform="translate(19 14)"></path><path d="M17.4 19.076c0 4.295-2.987 7.877-6.946 8.707h-.009c-.565.118-1.148.18-1.74.18-2.749 0-5.206-1.298-6.796-3.329C.716 23.11 0 21.188 0 19.085V5.406c0-1.218.972-2.21 2.165-2.21h.009c1.193 0 2.165.992 2.165 2.21v5.974c.009-.01.018-.01.018-.01v3.7c0 1.218.98 2.22 2.174 2.22.441 0 .857-.136 1.201-.37.08.009.168.018.257.018h.486c-.221 0-.45-.027-.663-.081-.468-.109-.91-.316-1.264-.614-.053-.036-.097-.081-.141-.135-.08-.072-.15-.154-.203-.244-.045-.054-.08-.117-.115-.18-.036-.064-.071-.127-.097-.19-.027-.063-.053-.126-.071-.19-.018-.062-.044-.126-.053-.189-.027-.126-.044-.252-.044-.379v-.37c0-.135 0-.261.008-.379 0-.045 0-.099.01-.153.008-.072.008-.135.017-.199l.026-.19c.01-.071.027-.134.045-.198.009-.009.009-.009.009-.018.008-.009.008-.027.008-.036.036-.08.062-.162.098-.234.017-.036.035-.054.053-.09.008 0 .008-.01.008-.01l.01-.009c.008-.009.017-.018.017-.027l.026-.027c.01-.009.01-.018.018-.018l.053-.054c.009-.009.009-.009.018-.009.026-.027.062-.045.097-.072.035-.027.062-.036.097-.045.01 0 .01 0 .01-.01h.008c.009-.008.018-.008.018-.008.044-.018.088-.036.15-.045.009-.01.115-.027.168-.027.044-.01.097-.01.141-.01h8.899c.283 0 .813.154.848.172l.053.027c.142.081.266.199.372.316.044.054.08.108.114.171.106.19.16.406.195.659v1.886c.009-.018-.018 3.239-.018 3.347z" transform="translate(19 14)"></path></g></g></svg>