<svg width="68px" height="68px" viewBox="0 0 68 68" version="1.1" xmlns="http://www.w3.org/2000/svg" xmlns:xlink="http://www.w3.org/1999/xlink"><!-- Generator: Sketch 54.1 (76490) - https://sketchapp.com --><title>Icon / Tip / Name 01</title><desc>Created with Sketch.</desc><defs><filter x="-47.9%" y="-47.9%" width="195.8%" height="195.8%" filterUnits="objectBoundingBox" id="filter-1"><feOffset dx="0" dy="2" in="SourceAlpha" result="shadowOffsetOuter1"></feOffset><feGaussianBlur stdDeviation="5" in="shadowOffsetOuter1" result="shadowBlurOuter1"></feGaussianBlur><feColorMatrix values="0 0 0 0 0   0 0 0 0 0   0 0 0 0 0  0 0 0 0.162286932 0" type="matrix" in="shadowBlurOuter1" result="shadowMatrixOuter1"></feColorMatrix><feMerge><feMergeNode in="shadowMatrixOuter1"></feMergeNode><feMergeNode in="SourceGraphic"></feMergeNode></feMerge></filter></defs><g id="Revisión-website" stroke="none" stroke-width="1" fill="none" fill-rule="evenodd"><g id="HOME-Manteniendo-iconos" transform="translate(-858.000000, -4422.000000)"><g id="Icon-/-Tip-/-Name-01" filter="url(#filter-1)" transform="translate(868.000000, 4430.000000)"><g id="48px"><path d="M24,0 C10.7658799,0 0,10.7658799 0,23.9994087 C0,28.960134 1.50613512,33.7091608 4.35874439,37.7615927 L2.59064702,46.8740945 C2.52678263,47.2058345 2.64327601,47.5464446 2.89873355,47.7681959 C3.07258661,47.9195782 3.29374661,47.9994087 3.51845464,47.9994087 C3.6219386,47.9994087 3.7260139,47.9828512 3.82594983,47.9479624 L12.4062485,44.9924605 C15.957818,46.961021 19.9564382,48 23.9994087,48 C37.2335288,48 48,37.2329375 48,24 C48,10.7670625 37.2341201,0 24,0 Z" id="Path" fill="#FF4C45" transform="translate(24.000000, 24.000000) scale(-1, 1) translate(-24.000000, -24.000000) "></path><path d="M33.0655808,24.3479444 L33.0655808,30.169979 C33.0655808,31.0722869 32.9468326,31.9531114 32.7309267,32.8017105 C32.7309267,32.8017105 32.7309267,32.8017105 32.7309267,32.8124523 C31.5542397,37.3562173 27.4088468,40.7076468 22.4753975,40.7076468 C16.6243481,40.7076468 11.8852141,35.9920136 11.8852141,30.169979 C11.8852141,29.1602534 12.0363482,28.1720114 12.3062306,27.2482199 C12.7380423,28.505006 14.0658635,29.2569293 15.3936846,28.95616 C16.8078681,28.6339071 17.7146728,27.2159947 17.3800187,25.8088239 L17.2504752,25.2180271 C17.5635387,26.5929725 18.9453363,27.4845387 20.3379293,27.2159947 C19.3987387,26.7003901 18.9129505,25.8195657 18.9129505,25.0461589 L18.9129505,24.3479444 C18.9129505,22.1673669 19.8629363,22.3822021 20.8884893,22.3822021 L31.090042,22.3822021 C32.5150208,22.3822021 33.0439902,23.1663507 33.0655808,24.3479444 Z" id="Path" stroke="#FF4C45" stroke-width="0.5" fill="#FFFFFF"></path><path d="M18.9129505,24.3479444 L18.9129505,25.0461589 C18.9129505,25.8195657 19.3987387,26.7003901 20.3379293,27.2159947 C18.9453363,27.4845387 17.574334,26.6037143 17.2504752,25.2180271 L16.4084423,21.533603 L16.3112846,21.1039325 L16.1817411,20.5131356 C15.8578823,19.1059649 16.7538917,17.6880524 18.1680752,17.3657996 C18.3623905,17.3228326 18.5675011,17.301349 18.7510211,17.301349 C19.960094,17.301349 21.061214,18.1284646 21.3418916,19.3422837 L21.4174587,19.68602 L22.0327904,22.3714603 L20.877694,22.3714603 C19.8737316,22.3822021 18.9129505,22.1673669 18.9129505,24.3479444 Z" id="Path" stroke="#FF4C45" stroke-width="0.5" fill="#FFFFFF"></path><path d="M15.4044799,28.9669017 C14.0766588,29.267671 12.7488376,28.5157478 12.3170259,27.2589617 C12.28464,27.1730276 12.2522541,27.0870935 12.2306635,26.9904177 L11.1511341,22.2855262 C10.8272753,20.8783555 11.7232847,19.460443 13.1374682,19.1381902 C13.3317835,19.0952232 13.5368941,19.0737396 13.7204141,19.0737396 C14.929487,19.0737396 16.030607,19.9008552 16.3112846,21.1146743 L16.4084423,21.5443447 L16.4192376,21.5443447 L17.2612705,25.2287688 L17.390814,25.8195657 C17.7146728,27.2267364 16.8186634,28.6446489 15.4044799,28.9669017 Z" id="Path" stroke="#FF4C45" stroke-width="0.5" fill="#FFFFFF"></path><path d="M25.9603839,27.7292176 C25.9603839,27.7292176 25.9479701,27.7292176 25.9479701,27.7292176" id="Path" stroke="#FF4C45" stroke-width="0.5" fill="#FFFFFF"></path><path d="M27.8730444,9.70692383 L27.8730444,22.3822021 L22.5725551,22.3822021 L22.5725551,9.70692383 C22.5725551,8.25678607 23.7708327,7.06445057 25.2281974,7.06445057 C25.9622774,7.06445057 26.6207903,7.36521988 27.0957833,7.83785738 C27.5815715,8.32123663 27.8730444,8.97648407 27.8730444,9.70692383 Z" id="Path" stroke="#FF4C45" stroke-width="0.5" fill="#FFFFFF"></path><path d="M21.4930257,35.6482772 L21.4930257,33.2850898 C21.4930257,30.8574517 23.414588,27.742341 27.7758868,27.6671486 C27.7758868,27.6671486 21.061214,28.0323685 20.3379293,27.2267364" id="Path" stroke="#FF4C45" stroke-width="0.5" fill="#FFFFFF"></path><path d="M37.0274537,10.9100011 C37.0274537,11.1355781 36.9950678,11.3718968 36.9302961,11.6082156 L33.0655808,25.4650876 L33.0655808,24.3586862 C33.0439902,23.1770924 32.5150208,22.3929439 31.090042,22.3929439 L30.9281126,22.3929439 C30.8849315,22.3822021 30.8525456,22.3822021 30.8093644,22.3822021 L30.0213079,22.3822021 C29.9781268,22.3822021 29.9457409,22.3822021 29.9025597,22.3929439 L28.4343997,22.3929439 L28.6395103,21.619537 L31.8996891,9.92175906 C32.3962726,8.69719828 33.7564796,7.9989838 35.0627102,8.35346192 C36.2501926,8.68645651 37.0274537,9.74989088 37.0274537,10.9100011 Z" id="Path" stroke="#FF4C45" stroke-width="0.5" fill="#FFFFFF"></path></g></g></g></g></svg>